<svg width="12" height="12" viewBox="0 0 12 12" fill="none" xmlns="http://www.w3.org/2000/svg">
<path fill-rule="evenodd" clip-rule="evenodd" d="M6 0C9.31304 0 12 2.68696 12 6C12 9.31304 9.31304 12 6 12C2.68696 12 0 9.31304 0 6C0 2.68696 2.68696 0 6 0ZM5.4569 7.14956H6.56896L6.75 2.75H5.27586L5.4569 7.14956ZM5.4569 7.97271C5.32759 8.11463 5.25 8.28493 5.25 8.51201C5.25 8.73908 5.32759 8.90939 5.4569 9.05131C5.61207 9.19323 5.7931 9.25 6 9.25C6.23276 9.25 6.38793 9.19323 6.5431 9.05131C6.67241 8.90939 6.75 8.73908 6.75 8.51201C6.75 8.28493 6.69828 8.11463 6.5431 7.97271C6.38793 7.8024 6.2069 7.74563 6 7.74563C5.7931 7.74563 5.61207 7.83079 5.4569 7.97271Z" fill="#FA4655"/>
</svg>
