<svg width="24" height="20" viewBox="0 0 24 20" fill="none" xmlns="http://www.w3.org/2000/svg">
<g opacity="0.9">
<path fill-rule="evenodd" clip-rule="evenodd" d="M1.5 0.5H22.5C23.3284 0.5 24 1.17157 24 2C24 2.82843 23.3284 3.5 22.5 3.5H1.5C0.671573 3.5 0 2.82843 0 2C0 1.17157 0.671573 0.5 1.5 0.5Z" fill="white"/>
<path fill-rule="evenodd" clip-rule="evenodd" d="M1.5 8.5H22.5C23.3284 8.5 24 9.17157 24 10C24 10.8284 23.3284 11.5 22.5 11.5H1.5C0.671573 11.5 0 10.8284 0 10C0 9.17157 0.671573 8.5 1.5 8.5Z" fill="white"/>
<path fill-rule="evenodd" clip-rule="evenodd" d="M1.5 16.5H22.5C23.3284 16.5 24 17.1716 24 18C24 18.8284 23.3284 19.5 22.5 19.5H1.5C0.671573 19.5 0 18.8284 0 18C0 17.1716 0.671573 16.5 1.5 16.5Z" fill="white"/>
</g>
</svg>
