<svg width="97" height="30" viewBox="0 0 97 30" fill="none" xmlns="http://www.w3.org/2000/svg">
<path d="M0 6.59573L14 12.9787V30L0 23.617V6.59573Z" fill="#926CFF"/>
<path d="M1.18896 6.58832L14 0.552711L26.811 6.58832L14 12.4292L1.18896 6.58832Z" stroke="#926CFF"/>
<path d="M28 6.59573L14 12.9787V30L28 23.617V6.59573Z" fill="#926CFF"/>
<path d="M39.2912 22V8.90909H44.2003C45.206 8.90909 46.0497 9.09659 46.7315 9.47159C47.4176 9.84659 47.9354 10.3622 48.2848 11.0185C48.6385 11.6705 48.8153 12.4119 48.8153 13.2429C48.8153 14.0824 48.6385 14.8281 48.2848 15.4801C47.9311 16.1321 47.4091 16.6456 46.7188 17.0206C46.0284 17.3913 45.1783 17.5767 44.1683 17.5767H40.9148V15.6271H43.8487C44.4368 15.6271 44.9183 15.5249 45.2933 15.3203C45.6683 15.1158 45.9453 14.8345 46.1243 14.4766C46.3075 14.1186 46.3991 13.7074 46.3991 13.2429C46.3991 12.7784 46.3075 12.3693 46.1243 12.0156C45.9453 11.6619 45.6662 11.3871 45.2869 11.1911C44.9119 10.9908 44.4283 10.8906 43.8359 10.8906H41.6626V22H39.2912ZM53.0868 8.90909V22H50.7729V8.90909H53.0868ZM58.2915 22.1982C57.6694 22.1982 57.109 22.0874 56.6104 21.8658C56.1161 21.6399 55.7241 21.3075 55.4343 20.8686C55.1488 20.4297 55.006 19.8885 55.006 19.245C55.006 18.6911 55.1083 18.233 55.3129 17.8707C55.5174 17.5085 55.7965 17.2188 56.1502 17.0014C56.5039 16.7841 56.9023 16.62 57.3455 16.5092C57.793 16.3942 58.2553 16.3111 58.7326 16.2599C59.3079 16.2003 59.7745 16.147 60.1325 16.1001C60.4904 16.049 60.7504 15.9723 60.9123 15.87C61.0785 15.7635 61.1616 15.5994 61.1616 15.3778V15.3395C61.1616 14.858 61.0188 14.4851 60.7333 14.2209C60.4478 13.9567 60.0366 13.8246 59.4996 13.8246C58.9329 13.8246 58.4833 13.9482 58.1509 14.1953C57.8228 14.4425 57.6012 14.7344 57.4862 15.071L55.3256 14.7642C55.4961 14.1676 55.7773 13.669 56.1694 13.2685C56.5614 12.8636 57.0408 12.5611 57.6076 12.3608C58.1744 12.1562 58.8008 12.054 59.4869 12.054C59.9599 12.054 60.4308 12.1094 60.8995 12.2202C61.3683 12.331 61.7965 12.5142 62.1843 12.7699C62.5721 13.0213 62.8832 13.3643 63.1175 13.799C63.3562 14.2337 63.4755 14.777 63.4755 15.429V22H61.2511V20.6513H61.1744C61.0337 20.924 60.8356 21.1797 60.5799 21.4183C60.3285 21.6527 60.011 21.8423 59.6275 21.9872C59.2482 22.1278 58.8029 22.1982 58.2915 22.1982ZM58.8924 20.4979C59.3569 20.4979 59.7596 20.4062 60.1005 20.223C60.4414 20.0355 60.7035 19.7884 60.8867 19.4815C61.0742 19.1747 61.168 18.8402 61.168 18.478V17.321C61.0955 17.3807 60.9719 17.4361 60.7972 17.4872C60.6268 17.5384 60.435 17.5831 60.2219 17.6214C60.0089 17.6598 59.7979 17.6939 59.5891 17.7237C59.3803 17.7536 59.1992 17.7791 59.0458 17.8004C58.7006 17.8473 58.3917 17.924 58.119 18.0305C57.8462 18.1371 57.631 18.2862 57.4734 18.478C57.3157 18.6655 57.2369 18.9084 57.2369 19.2067C57.2369 19.6328 57.3924 19.9545 57.7035 20.1719C58.0146 20.3892 58.4109 20.4979 58.8924 20.4979ZM68.1161 16.2472V22H65.8022V12.1818H68.0138V13.8501H68.1289C68.3548 13.3004 68.7148 12.8636 69.2092 12.5398C69.7077 12.2159 70.3235 12.054 71.0565 12.054C71.734 12.054 72.3242 12.1989 72.8271 12.4886C73.3342 12.7784 73.7262 13.1982 74.0032 13.7479C74.2844 14.2976 74.4229 14.9645 74.4187 15.7486V22H72.1048V16.1065C72.1048 15.4503 71.9343 14.9368 71.5934 14.5661C71.2567 14.1953 70.7901 14.0099 70.1935 14.0099C69.7887 14.0099 69.4286 14.0994 69.1133 14.2784C68.8022 14.4531 68.5572 14.7067 68.3782 15.0391C68.2035 15.3714 68.1161 15.7741 68.1161 16.2472ZM81.0536 22.1918C80.0735 22.1918 79.2319 21.9766 78.5288 21.5462C77.8299 21.1158 77.2908 20.5213 76.9116 19.7628C76.5366 19 76.3491 18.1222 76.3491 17.1293C76.3491 16.1321 76.5408 15.2521 76.9244 14.4893C77.3079 13.7223 77.8491 13.1257 78.5479 12.6996C79.2511 12.2692 80.082 12.054 81.0408 12.054C81.8377 12.054 82.543 12.201 83.1566 12.495C83.7745 12.7848 84.2667 13.196 84.6332 13.7287C84.9996 14.2571 85.2085 14.875 85.2596 15.5824H83.0479C82.9585 15.1094 82.7454 14.7152 82.4087 14.3999C82.0763 14.0803 81.631 13.9205 81.0728 13.9205C80.5998 13.9205 80.1843 14.0483 79.8263 14.304C79.4684 14.5554 79.1893 14.9176 78.989 15.3906C78.793 15.8636 78.695 16.4304 78.695 17.0909C78.695 17.7599 78.793 18.3352 78.989 18.8168C79.185 19.294 79.4599 19.6626 79.8136 19.9226C80.1715 20.1783 80.5913 20.3061 81.0728 20.3061C81.4137 20.3061 81.7184 20.2422 81.9869 20.1143C82.2596 19.9822 82.4876 19.7926 82.6708 19.5455C82.854 19.2983 82.9798 18.9979 83.0479 18.6442H85.2596C85.2042 19.3388 84.9996 19.9545 84.646 20.4915C84.2923 21.0241 83.8107 21.4418 83.2013 21.7443C82.592 22.0426 81.8761 22.1918 81.0536 22.1918ZM88.5978 25.6818C88.2825 25.6818 87.9906 25.6563 87.7221 25.6051C87.4579 25.5582 87.247 25.5028 87.0893 25.4389L87.6262 23.6364C87.9629 23.7344 88.2633 23.7813 88.5275 23.777C88.7917 23.7727 89.024 23.6896 89.2243 23.5277C89.4288 23.37 89.6014 23.1058 89.742 22.7351L89.9402 22.2045L86.3798 12.1818H88.8343L91.0971 19.5966H91.1994L93.4686 12.1818H95.9295L91.9984 23.1889C91.8152 23.7088 91.5723 24.1541 91.2697 24.5249C90.9672 24.8999 90.5964 25.1854 90.1575 25.3814C89.7228 25.5817 89.2029 25.6818 88.5978 25.6818Z" fill="white"/>
</svg>
