<svg width="38" height="38" viewBox="0 0 38 38" fill="none" xmlns="http://www.w3.org/2000/svg">
<circle cx="19" cy="19" r="19" fill="#926CFF"/>
<path d="M9.20524 16.8095C9.86822 16.1608 10.9431 16.1608 11.6061 16.8095L18.368 23.4252C19.031 24.0738 19.031 25.1255 18.368 25.7741C17.705 26.4228 16.6301 26.4228 15.9672 25.7741L9.20524 19.1584C8.54226 18.5098 8.54226 17.4581 9.20524 16.8095Z" fill="white"/>
<path fill-rule="evenodd" clip-rule="evenodd" d="M29.0205 13.1789C29.6832 13.8272 29.6832 14.8784 29.0205 15.5268L18.543 25.7778C17.8803 26.4261 16.8059 26.4261 16.1432 25.7778C15.4805 25.1294 15.4805 24.0783 16.1432 23.4299L26.6207 13.1789C27.2834 12.5305 28.3578 12.5305 29.0205 13.1789Z" fill="white"/>
</svg>
