<svg width="24" height="24" viewBox="0 0 24 24" fill="none" xmlns="http://www.w3.org/2000/svg">
<g opacity="0.6">
<g opacity="0.9">
<path fill-rule="evenodd" clip-rule="evenodd" d="M6.38583 16.7729L17.5228 5.63599C17.9621 5.19665 18.6744 5.19665 19.1138 5.63599C19.5531 6.07533 19.5531 6.78764 19.1138 7.22698L7.97682 18.3639C7.53748 18.8033 6.82517 18.8033 6.38583 18.3639C5.94649 17.9246 5.94649 17.2123 6.38583 16.7729Z" fill="#222222"/>
<path fill-rule="evenodd" clip-rule="evenodd" d="M7.97665 5.63601L19.1136 16.7729C19.5529 17.2123 19.5529 17.9246 19.1136 18.3639C18.6742 18.8033 17.9619 18.8033 17.5226 18.3639L6.38566 7.227C5.94632 6.78766 5.94632 6.07535 6.38566 5.63601C6.825 5.19667 7.53731 5.19667 7.97665 5.63601Z" fill="#222222"/>
</g>
</g>
</svg>
