<svg width="70" height="51" viewBox="0 0 70 51" fill="none" xmlns="http://www.w3.org/2000/svg">
<path d="M58.1069 9.42261C56.6703 8.01398 54.8391 7.05547 52.8456 6.6688C50.8521 6.28214 48.7863 6.48475 46.9105 7.25093C45.0347 8.01711 43.4336 9.31227 42.3105 10.972C41.1874 12.6317 40.5929 14.581 40.6025 16.5725C40.6054 19.2318 41.686 21.7811 43.6065 23.6598C45.5271 25.5385 48.1304 26.5929 50.844 26.5909C52.1901 26.5957 53.524 26.3401 54.7692 25.8389C56.0144 25.3377 57.1465 24.6007 58.1005 23.67C59.0546 22.7394 59.812 21.6334 60.3293 20.4155C60.8465 19.1976 61.1135 17.8917 61.115 16.5725C61.1363 15.246 60.8816 13.9291 60.3663 12.7023C59.851 11.4754 59.086 10.3644 58.1179 9.43703L58.1069 9.42261ZM34.0383 11.8876C34.0609 10.3792 33.7692 8.88208 33.1812 7.4879C32.5932 6.09371 31.7211 4.83173 30.6184 3.77912C29.5485 2.69176 28.2619 1.83155 26.8386 1.25191C25.4152 0.672265 23.8854 0.385561 22.3442 0.409599C20.806 0.386751 19.2793 0.674073 17.8591 1.25372C16.4389 1.83337 15.1555 2.69296 14.0885 3.77912C12.9858 4.83173 12.1137 6.09371 11.5257 7.4879C10.9376 8.88208 10.646 10.3792 10.6685 11.8876C10.6453 13.3961 10.9367 14.8934 11.5248 16.2876C12.1129 17.6819 12.9852 18.9438 14.0885 19.9961C15.1605 21.0733 16.4457 21.9246 17.8653 22.4978C19.2849 23.071 20.8091 23.354 22.3442 23.3295C23.8823 23.3552 25.4096 23.0728 26.8324 22.4996C28.2551 21.9264 29.5435 21.0745 30.6184 19.9961C31.7216 18.9438 32.594 17.6819 33.1821 16.2876C33.7702 14.8934 34.0616 13.3961 34.0383 11.8876Z" fill="url(#paint0_linear_722_16043)"/>
<path d="M69.9959 47.5037L69.9407 47.2046C69.9407 47.2046 69.9407 47.1757 69.9407 47.1649C69.6943 45.7427 69.277 44.354 68.6977 43.0278C67.7308 40.7624 66.3189 38.7053 64.5423 36.9735C62.7484 35.2035 60.6139 33.8 58.2626 32.8442C55.9112 31.8885 53.3896 31.3995 50.844 31.4057C49.4216 31.4299 48.0051 31.5917 46.615 31.8886C46.5268 31.9066 46.4348 31.9246 46.3503 31.9498C45.8315 32.099 45.3697 32.3958 45.0233 32.8026C44.677 33.2093 44.4617 33.7078 44.4049 34.2346C44.3994 34.3258 44.3994 34.4173 44.4049 34.5085C44.3993 34.5901 44.3993 34.672 44.4049 34.7536C44.4011 34.7665 44.4011 34.7802 44.4049 34.7932C44.4432 35.1494 44.5559 35.4941 44.7359 35.8059C44.8131 35.914 44.883 36.0221 44.9528 36.1302C47.2951 39.697 48.7279 43.7634 49.1304 47.9866C49.1266 47.9995 49.1266 48.0133 49.1304 48.0262C49.202 48.6787 49.5173 49.2821 50.0156 49.7205C50.5139 50.1589 51.1599 50.4013 51.8296 50.4011H67.2746C67.9944 50.4011 68.6847 50.1209 69.1936 49.6221C69.7026 49.1234 69.9885 48.4469 69.9885 47.7415C70.0008 47.6622 70.0032 47.583 69.9959 47.5037Z" fill="url(#paint1_linear_722_16043)"/>
<path d="M44.6881 47.7486C44.6881 48.454 44.4021 49.1305 43.8932 49.6292C43.3842 50.128 42.6939 50.4082 41.9742 50.4082H2.72171C2.0016 50.4082 1.31092 50.1281 0.801383 49.6294C0.291841 49.1308 0.00509442 48.4543 0.00411997 47.7486C-0.00137332 47.6574 -0.00137332 47.566 0.00411997 47.4747C0.00411997 47.3846 0.0298616 47.2982 0.0445711 47.2117C0.830158 41.9695 3.51371 37.1791 7.60514 33.7154C11.6966 30.2517 16.9229 28.3458 22.3295 28.3458C27.7362 28.3458 32.9625 30.2517 37.0539 33.7154C41.1454 37.1791 43.8289 41.9695 44.6145 47.2117L44.6586 47.5108C44.6783 47.5901 44.6881 47.6693 44.6881 47.7486Z" fill="url(#paint2_linear_722_16043)"/>
<defs>
<linearGradient id="paint0_linear_722_16043" x1="3.68019e-07" y1="16.4082" x2="71.1267" y2="21.4756" gradientUnits="userSpaceOnUse">
<stop stop-color="white" stop-opacity="0.5"/>
<stop offset="1" stop-color="#FDFDFD" stop-opacity="0.4"/>
</linearGradient>
<linearGradient id="paint1_linear_722_16043" x1="3.68019e-07" y1="16.4082" x2="71.1267" y2="21.4756" gradientUnits="userSpaceOnUse">
<stop stop-color="white" stop-opacity="0.5"/>
<stop offset="1" stop-color="#FDFDFD" stop-opacity="0.4"/>
</linearGradient>
<linearGradient id="paint2_linear_722_16043" x1="3.68019e-07" y1="16.4082" x2="71.1267" y2="21.4756" gradientUnits="userSpaceOnUse">
<stop stop-color="white" stop-opacity="0.5"/>
<stop offset="1" stop-color="#FDFDFD" stop-opacity="0.4"/>
</linearGradient>
</defs>
</svg>
