<svg width="70" height="70" viewBox="0 0 70 70" fill="none" xmlns="http://www.w3.org/2000/svg">
<path fill-rule="evenodd" clip-rule="evenodd" d="M69.1478 19.1809C69.6996 19.8138 70.0002 20.6007 70 21.4117V49.4047C70.0017 50.0787 69.796 50.7395 69.4065 51.3107C69.0171 51.8818 68.4598 52.3401 67.7991 52.6326C67.1384 52.9251 66.4011 53.0398 65.6724 52.9636C64.9437 52.8874 64.2533 52.6234 63.681 52.2019L52.0168 43.625C51.56 43.2898 51.1914 42.8642 50.9385 42.3799C50.6855 41.8956 50.5548 41.365 50.556 40.8278V29.9886C50.5548 29.4514 50.6855 28.9209 50.9385 28.4365C51.1914 27.9522 51.56 27.5266 52.0168 27.1914L63.681 18.6215C64.4869 18.0299 65.5153 17.7566 66.5404 17.8615C67.5654 17.9664 68.5032 18.4409 69.1478 19.1809ZM35 10.4082C38.0929 10.4073 41.0595 11.5354 43.2476 13.5444C45.4356 15.5534 46.6659 18.2789 46.6679 21.1215V49.6949C46.6659 52.5375 45.4356 55.263 43.2476 57.272C41.0595 59.281 38.0929 60.4091 35 60.4082H11.6679C8.57507 60.4091 5.60843 59.281 3.42038 57.272C1.23233 55.263 0.00201736 52.5375 0 49.6949V21.1215C0.00201736 18.2789 1.23233 15.5534 3.42038 13.5444C5.60843 11.5354 8.57507 10.4073 11.6679 10.4082H35Z" fill="url(#paint0_linear_722_16051)"/>
<defs>
<linearGradient id="paint0_linear_722_16051" x1="3.68019e-07" y1="26.4082" x2="71.1267" y2="31.4756" gradientUnits="userSpaceOnUse">
<stop stop-color="white" stop-opacity="0.5"/>
<stop offset="1" stop-color="#FDFDFD" stop-opacity="0.4"/>
</linearGradient>
</defs>
</svg>
