<svg width="42" height="51" viewBox="0 0 42 51" fill="none" xmlns="http://www.w3.org/2000/svg">
<path fill-rule="evenodd" clip-rule="evenodd" d="M21 30.2266C22.7849 30.2307 24.531 29.7165 26.017 28.7491C27.5031 27.7817 28.6624 26.4046 29.3482 24.7922C30.034 23.1798 30.2154 21.4045 29.8695 19.6912C29.5236 17.9778 28.6659 16.4034 27.4049 15.1673C26.144 13.9312 24.5366 13.0889 22.7862 12.7471C21.0358 12.4053 19.2211 12.5793 17.5718 13.2472C15.9226 13.9151 14.5129 15.0467 13.5213 16.4989C12.5297 17.9511 12.0008 19.6585 12.0015 21.4049C12.0001 22.5623 12.2318 23.7087 12.6833 24.7785C13.1348 25.8483 13.7973 26.8205 14.633 27.6398C15.4686 28.459 16.461 29.1091 17.5535 29.5529C18.6459 29.9968 19.8171 30.2257 21 30.2266ZM22.792 50.1713C22.2919 50.5877 21.6567 50.8164 21 50.8164C20.3433 50.8164 19.7081 50.5877 19.208 50.1713C6.4015 39.5894 0 31.3738 0 21.6378C0 6.36764 11.347 0.816406 21 0.816406C30.9575 0.816406 42 6.36764 42 21.6378C42 31.3738 35.5985 39.5894 22.792 50.1713Z" fill="url(#paint0_linear_722_16047)"/>
<defs>
<linearGradient id="paint0_linear_722_16047" x1="2.20812e-07" y1="16.8164" x2="42.8144" y2="18.6466" gradientUnits="userSpaceOnUse">
<stop stop-color="white" stop-opacity="0.5"/>
<stop offset="1" stop-color="#FDFDFD" stop-opacity="0.4"/>
</linearGradient>
</defs>
</svg>
