<svg width="70" height="50" viewBox="0 0 70 50" fill="none" xmlns="http://www.w3.org/2000/svg">
<path d="M69.4494 26.9097C69.8069 26.4272 70 25.8423 70 25.2413C70 24.6404 69.8069 24.0554 69.4494 23.5729C64.889 17.4641 59.6979 12.7407 53.8761 9.40278C47.8533 5.93056 41.5591 4.19444 34.9934 4.19444C30.5527 4.19096 26.1486 5.00056 21.9983 6.58333L15.4558 0L10.4171 5.07639L54.992 50L60.0306 44.9236L55.335 40.191C60.5608 36.9317 65.2656 32.5046 69.4494 26.9097ZM45.3964 14.7569C46.852 16.2185 47.9884 17.9673 48.7335 19.8924C49.4417 21.7396 49.7758 23.7097 49.7163 25.6877C49.6568 27.6657 49.2049 29.612 48.387 31.4132C48.2033 31.8125 48.0058 32.2049 47.791 32.5833L42.6241 27.3958C42.7784 26.8569 42.8737 26.3027 42.9083 25.7431C42.9811 24.582 42.8026 23.4189 42.385 22.3333C41.9876 21.299 41.3797 20.3589 40.5999 19.5728C39.8201 18.7867 38.8856 18.1719 37.8558 17.7674C36.782 17.3592 35.6337 17.1852 34.4875 17.2569C33.9289 17.2927 33.3753 17.3834 32.8345 17.5278L27.7231 12.3472C28.0948 12.1271 28.4776 11.9266 28.8701 11.7465C30.5063 10.9873 32.2688 10.5388 34.0682 10.4236C36.2053 10.2775 38.3481 10.6108 40.3404 11.3993C42.2424 12.1503 43.9651 13.2944 45.3964 14.7569ZM27.0959 25.7882C27.1434 26.5863 27.3141 27.3723 27.6018 28.1181C27.9878 29.1639 28.5982 30.1122 29.3899 30.8958C30.7328 32.2638 32.5314 33.0883 34.4424 33.2118L27.0959 25.7882ZM0.000293549 25.2326C-0.00849295 25.8355 0.180183 26.4246 0.537423 26.9097C5.10938 33.0185 10.3005 37.7454 16.1107 41.0903C22.1312 44.5347 28.4277 46.2581 35.0003 46.2604C38.6562 46.2632 42.2912 45.7094 45.7811 44.6181L40.285 39.0625C37.9732 39.9405 35.4785 40.2234 33.0293 39.8853C30.5801 39.5472 28.2547 38.5989 26.266 37.1272C24.2773 35.6555 22.6888 33.7074 21.6459 31.4614C20.6031 29.2153 20.1392 26.743 20.2969 24.2708C20.3943 22.7737 20.7167 21.2999 21.2533 19.8993L12.8602 11.4444C8.34832 14.5787 4.24073 18.6192 0.537423 23.566C0.182343 24.0483 -0.0062192 24.6334 0.000293549 25.2326Z" fill="url(#paint0_linear_722_16049)"/>
<defs>
<linearGradient id="paint0_linear_722_16049" x1="3.68019e-07" y1="16" x2="71.1267" y2="21.0674" gradientUnits="userSpaceOnUse">
<stop stop-color="white" stop-opacity="0.5"/>
<stop offset="1" stop-color="#FDFDFD" stop-opacity="0.4"/>
</linearGradient>
</defs>
</svg>
